<svg xmlns="http://www.w3.org/2000/svg" viewBox="0 0 669.13 332.3"><defs><style>.cls-1{fill:#ec4c4c;}.cls-2{fill:#ed4c4c;}.cls-3{fill:#d54747;}.cls-4{fill:#f29933;}.cls-5{fill:#ee9031;}.cls-6{fill:#fcab36;}.cls-7{fill:#f8a034;}.cls-8{fill:#ec4d4b;}.cls-9{fill:#fdb638;}.cls-10{fill:#f15755;}.cls-11{fill:#ffc734;}.cls-12{fill:#ffd25d;}.cls-13{fill:#fdb637;}.cls-14{fill:#faa232;}.cls-15{fill:#feb639;}.cls-16,.cls-17,.cls-20,.cls-21,.cls-22,.cls-23{fill:none;stroke-miterlimit:10;}.cls-16{stroke:#000;opacity:0.25;}.cls-16,.cls-17{stroke-width:0.25px;}.cls-17{stroke:#fff;opacity:0.35;}.cls-18{fill:#f15855;}.cls-19{fill:#fbe536;}.cls-20,.cls-21{stroke:#fdb638;}.cls-20{stroke-width:7px;}.cls-21{stroke-width:4px;}.cls-22,.cls-23{stroke:#d54747;}.cls-22{stroke-width:4.5px;}.cls-23{stroke-width:6px;}</style></defs><g id="Layer_2" data-name="Layer 2"><g id="Layer_3" data-name="Layer 3"><g id="box"><g id="box-2" data-name="box"><polygon class="cls-1" points="354.91 128.28 354.91 331.09 243.91 279.09 241.91 163.09 349.57 126.09 354.91 128.28"/><polygon class="cls-2" points="241.91 157.36 241.91 176.09 354.8 223.94 354.8 205.95 241.91 157.36"/><polygon class="cls-3" points="461.91 172.09 458.91 275.09 354.91 331.09 354.91 128.28 461.91 172.09"/><path class="cls-4" d="M426.87,171.5l-30,11s1,67,1,125V308a45.3,45.3,0,0,0,19-6.46c10-6,10-9.16,10-9.16Z"/><polygon class="cls-5" points="397.17 212.5 426.87 199.5 426.87 184.09 397.17 195.26 397.17 212.5"/><path class="cls-6" d="M275.87,171.5l30,11s-1,67-1,125c0,0-10-2-17-5a39.38,39.38,0,0,1-12-8.44Z"/><polygon class="cls-7" points="305.56 193.19 305.87 203.5 275.87 190.64 275.87 176.5 305.56 193.19"/><polygon class="cls-8" points="469.91 135.09 358.91 183.09 230.91 128.09 348.41 88.09 469.91 135.09"/><rect class="cls-9" x="278.87" y="217.5" width="7" height="31" rx="2.94"/><rect class="cls-9" x="278.87" y="253.5" width="7" height="15" rx="2.04"/><polygon class="cls-10" points="358.91 183.09 358.91 217.09 230.91 160.39 230.91 128.09 358.91 183.09"/><polygon class="cls-3" points="469.91 135.09 469.91 169.09 358.91 217.09 358.91 183.09 469.91 135.09"/><path class="cls-6" d="M278.87,109.5s11-10,25-8c25,10,127,50,127,50l2,35a29.11,29.11,0,0,1-9,6,38.69,38.69,0,0,1-16,3c0-8-1-33-1-33Z"/><path class="cls-11" d="M412.87,112.5s-11-10-25-8c-25,10-119,41-119,41v32s9,9,32,14v-33Z"/><rect class="cls-12" x="311.22" y="126.21" width="4.98" height="16.73" rx="2.49" transform="translate(331.1 -206.34) rotate(69.7)"/><rect class="cls-12" x="292.22" y="133.21" width="4.98" height="16.73" rx="2.49" transform="translate(325.27 -183.94) rotate(69.7)"/><rect class="cls-13" x="406.73" y="137.65" width="4.98" height="20.55" rx="2.49" transform="translate(117.96 471.2) rotate(-67.86)"/><rect class="cls-14" x="418.73" y="219.65" width="4.98" height="35.85" rx="2.49"/><rect class="cls-14" x="418.73" y="258.5" width="4.98" height="8.15" rx="2.49"/><rect class="cls-15" x="425.22" y="159.21" width="4.98" height="11.29" rx="2.05" transform="translate(-6.03 16.59) rotate(-2.21)"/><line class="cls-16" x1="469.91" y1="135.09" x2="430.9" y2="151.96"/><polyline class="cls-17" points="406.69 162.43 358.91 183.09 300.87 158.5"/></g><rect class="cls-18" x="246.87" y="182.5" width="7" height="44" rx="3.5"/><rect class="cls-18" x="259.03" y="108.71" width="7" height="31.63" rx="3" transform="translate(294.13 -164.31) rotate(70.87)"/><rect class="cls-18" x="246.87" y="231.5" width="7" height="15" rx="2.04"/><line class="cls-16" x1="268.87" y1="145.5" x2="230.91" y2="128.09"/></g><g id="ribbons"><path class="cls-19" d="M331.12,63C320.28,51,307.58,45.5,300.37,45.5c-17.18,0-29.06,14-34,26-4.73,11.44-4.09,22.12,1.68,27.89,23.48,23.49,49,28.15,65.56,28.15a71.31,71.31,0,0,0,17.93-2l.36-.11V125C351.87,92.87,340.58,73.57,331.12,63Zm-62.4,35.61c-5.39-5.4-6-15.92-1.45-26.81,4.84-11.69,16.42-25.34,33.1-25.34,14.83,0,50.34,22.48,50.5,78.12C346.59,125.72,305.21,135.13,268.72,98.65Z"/><path class="cls-19" d="M300.37,46.5c-16.68,0-28.26,13.65-33.1,25.34-4.51,10.89-3.94,21.41,1.45,26.81,36.49,36.48,77.87,27.07,82.15,26C350.71,69,315.2,46.5,300.37,46.5Zm33,71.08c-15.06,0-37.39-4.39-58.3-25.3-2.3-2.3-2.87-8.87.49-17,4.08-9.85,13.33-19.79,24.79-19.79,3.92,0,13.52,3.67,22.58,13.52,7.53,8.18,16.88,23.09,18.63,47.62l0,.49-.48.05A76,76,0,0,1,333.39,117.58Z"/><path class="cls-19" d="M354.78,98.68l0-.73a41.47,41.47,0,0,0-2.65-13c-3.19-8.24-8.55-13.41-12.18-14.72-8.43-3.07-16.95,1.8-21.69,6.89s-6.58,11-4.73,15.14c12.2,27.2,36.85,28.79,37.1,28.81h.2l0-.08,0-.11.1-.28A59.13,59.13,0,0,0,354.78,98.68Zm-4.32,21.71,0,.08-.37,0C346.32,120,325,116.58,314,92c-1.75-3.91.07-9.61,4.64-14.54,3.63-3.9,9.53-7.67,15.86-7.67a15.26,15.26,0,0,1,5.25.92c2.93,1.06,8.52,5.78,11.85,14.4a41,41,0,0,1,2.65,13.68c0,.26,0,.52,0,.79A59.53,59.53,0,0,1,350.46,120.39Z"/><path class="cls-19" d="M354.24,98.78a41,41,0,0,0-2.65-13.68c-3.33-8.62-8.92-13.34-11.85-14.4a15.26,15.26,0,0,0-5.25-.92c-6.33,0-12.23,3.77-15.86,7.67C314.06,82.38,312.24,88.08,314,92c11,24.59,32.33,28,36.07,28.44l.37,0,0-.08a59.53,59.53,0,0,0,3.8-20.82C354.25,99.3,354.25,99,354.24,98.78ZM346.77,114l-.07.25-.26-.06c-7-1.8-19.8-7.37-27.47-24.47-.46-1-.13-3.28,1.65-6,2.73-4.22,8.38-8.5,13.89-8.5a9.79,9.79,0,0,1,3.37.59C340.1,76.63,353.93,88.6,346.77,114Z"/><path class="cls-19" d="M376,91.31c-4.83-2.41-9.68-2.54-12.32-.31a38.63,38.63,0,0,0-7.92,9c-.18.28-.35.55-.51.83a31.77,31.77,0,0,0-4.18,21.65c0,.22.08.35.08.36l0,.14h.15l.51,0c.87.05,1.71.06,2.54.06,11.54,0,18.85-3.6,23.05-6.77,5.22-3.94,7.76-8.74,7.91-11.54C385.66,98.41,380.51,93.55,376,91.31Zm1.19,24.62c-4.43,3.34-12.37,7.18-25.21,6.64l-.48,0s0-.1,0-.16a31.23,31.23,0,0,1,3.8-20.82c.16-.3.33-.6.52-.89a37.84,37.84,0,0,1,8.15-9.38c2.52-2.12,7.19-2,11.89.37,4.4,2.19,9.43,6.91,9.1,13C384.81,107,382.65,111.81,377.18,115.93Z"/><path class="cls-19" d="M375.82,91.67c-4.7-2.35-9.37-2.49-11.89-.37a37.84,37.84,0,0,0-8.15,9.38c-.19.29-.36.59-.52.89a31.23,31.23,0,0,0-3.8,20.82c0,.06,0,.12,0,.16l.48,0c12.84.54,20.78-3.3,25.21-6.64,5.47-4.12,7.63-9,7.74-11.24C385.25,98.58,380.22,93.86,375.82,91.67Zm-19,25.29h-.22v-.21c.13-5.57,2.13-13.76,10.95-21.17l.06,0a3.68,3.68,0,0,1,1.09-.14,13.07,13.07,0,0,1,8.46,4,7,7,0,0,1,2.19,4.94C379.09,106.2,373.89,116.1,356.79,117Z"/><path class="cls-19" d="M426.15,76.29c-4.07-9.85-13.31-19.79-24.78-19.79-3.92,0-13.53,3.67-22.59,13.52-7.53,8.18-16.87,23.09-18.62,47.63l0,.49.48,0a77.2,77.2,0,0,0,7.75.39,78,78,0,0,0,26.95-4.81,86.28,86.28,0,0,0,31.34-20.49C429,91,429.52,84.41,426.15,76.29ZM426,92.58c-20.67,20.66-42.73,25-57.6,25-2.37,0-4.78-.11-7.16-.34,3.4-44.79,32.6-59.74,40.18-59.74,11,0,19.91,9.63,23.86,19.17A27.57,27.57,0,0,1,427.5,87C427.5,89.59,426.93,91.6,426,92.58Zm.2-16.29c-4.07-9.85-13.31-19.79-24.78-19.79-3.92,0-13.53,3.67-22.59,13.52-7.53,8.18-16.87,23.09-18.62,47.63l0,.49.48,0a77.2,77.2,0,0,0,7.75.39,78,78,0,0,0,26.95-4.81,86.28,86.28,0,0,0,31.34-20.49C429,91,429.52,84.41,426.15,76.29ZM426,92.58c-20.67,20.66-42.73,25-57.6,25-2.37,0-4.78-.11-7.16-.34,3.4-44.79,32.6-59.74,40.18-59.74,11,0,19.91,9.63,23.86,19.17A27.57,27.57,0,0,1,427.5,87C427.5,89.59,426.93,91.6,426,92.58Zm9.45-20.12c-5-12-16.85-26-34-26-7.21,0-19.91,5.49-30.75,17.54-9.46,10.53-20.75,29.83-20.75,62v.37l.36.11a71.31,71.31,0,0,0,17.93,2c16.56,0,42.08-4.66,65.56-28.15C439.49,94.58,440.13,83.9,435.4,72.46ZM433,99.65c-36.48,36.48-77.87,27.07-82.15,26C351,70,386.54,47.5,401.37,47.5c16.69,0,28.26,13.65,33.1,25.34C439,83.73,438.41,94.25,433,99.65ZM401.37,56.5c-3.92,0-13.53,3.67-22.59,13.52-7.53,8.18-16.87,23.09-18.62,47.63l0,.49.48,0a77.2,77.2,0,0,0,7.75.39,78,78,0,0,0,26.95-4.81,86.28,86.28,0,0,0,31.34-20.49c2.3-2.3,2.87-8.87-.5-17C422.08,66.44,412.84,56.5,401.37,56.5ZM426,92.58c-20.67,20.66-42.73,25-57.6,25-2.37,0-4.78-.11-7.16-.34,3.4-44.79,32.6-59.74,40.18-59.74,11,0,19.91,9.63,23.86,19.17A27.57,27.57,0,0,1,427.5,87C427.5,89.59,426.93,91.6,426,92.58Z"/><path class="cls-19" d="M434.47,72.84c-4.84-11.69-16.41-25.34-33.1-25.34-14.83,0-50.34,22.48-50.5,78.12,4.28,1.1,45.67,10.51,82.15-26C438.41,94.25,439,83.73,434.47,72.84Zm-7.82,20.44a86.28,86.28,0,0,1-31.34,20.49,78,78,0,0,1-26.95,4.81,77.2,77.2,0,0,1-7.75-.39l-.48,0,0-.49C361.91,93.11,371.25,78.2,378.78,70c9.06-9.85,18.67-13.52,22.59-13.52,11.47,0,20.71,9.94,24.78,19.79C429.52,84.41,429,91,426.65,93.28Z"/><path class="cls-19" d="M426.15,76.29c-4.07-9.85-13.31-19.79-24.78-19.79-3.92,0-13.53,3.67-22.59,13.52-7.53,8.18-16.87,23.09-18.62,47.63l0,.49.48,0a77.2,77.2,0,0,0,7.75.39,78,78,0,0,0,26.95-4.81,86.28,86.28,0,0,0,31.34-20.49C429,91,429.52,84.41,426.15,76.29ZM426,92.58c-20.67,20.66-42.73,25-57.6,25-2.37,0-4.78-.11-7.16-.34,3.4-44.79,32.6-59.74,40.18-59.74,11,0,19.91,9.63,23.86,19.17A27.57,27.57,0,0,1,427.5,87C427.5,89.59,426.93,91.6,426,92.58Z"/></g><g id="Ellipse16"><path class="cls-3" d="M158.37,207a18,18,0,1,1-18,18,18,18,0,0,1,18-18m0-4.5a22.5,22.5,0,1,0,22.5,22.5,22.5,22.5,0,0,0-22.5-22.5Z"/></g><circle id="Ellipse15" class="cls-3" cx="196.37" cy="178" r="10"/><circle id="Ellipse14" class="cls-9" cx="544.37" cy="208" r="9"/><circle id="Ellipse13" class="cls-3" cx="655.37" cy="234" r="6"/><circle id="Ellipse12" class="cls-9" cx="632.37" cy="286" r="7"/><g id="Ellipse11"><path class="cls-9" d="M625.37,114a5,5,0,1,1-5,5,5,5,0,0,1,5-5m0-3a8,8,0,1,0,8,8,8,8,0,0,0-8-8Z"/></g><circle id="Ellipse10" class="cls-9" cx="480.37" cy="193" r="4"/><circle id="Ellipse9" class="cls-3" cx="518.37" cy="165" r="6"/><circle id="Ellipse8" class="cls-9" cx="469.37" cy="53" r="11"/><circle id="Ellipse7" class="cls-3" cx="350.37" cy="46" r="6"/><circle id="Ellipse6" class="cls-3" cx="411.37" cy="3" r="3"/><circle id="Ellipse5" class="cls-9" cx="230.37" cy="23" r="5"/><circle id="Ellipse4" class="cls-9" cx="141.37" cy="99" r="7"/><circle id="Ellipse3" class="cls-9" cx="24.37" cy="269" r="10"/><circle id="Ellipse2" class="cls-3" cx="68.37" cy="248" r="4"/><g id="Ellipse1"><path class="cls-3" d="M232.37,310a6,6,0,1,1-6,6,6,6,0,0,1,6-6m0-3a9,9,0,1,0,9,9,9,9,0,0,0-9-9Z"/></g><polyline id="zigzag4" class="cls-20" points="2.91 197 28.39 159 46.17 199 68.37 178 80.54 197"/><polyline id="zigzag3" class="cls-20" points="151.06 23 189.37 32 177.72 64 206.37 75.43 196.37 111"/><polyline id="zigzag2" class="cls-20" points="532.68 279 557.37 264 578.91 286 615.05 252"/><path id="cotillon7" class="cls-20" d="M633.37,188s6-10.85,16-12.43a57.14,57.14,0,0,1,19,.43"/><path id="cotillon6" class="cls-20" d="M94.75,113.51s-10.25-7-10.9-17.07A57.14,57.14,0,0,1,86,77.56"/><path id="cotillon5" class="cls-20" d="M265.68,14.52s3.4,11.93-2.58,20.1a57,57,0,0,1-13.76,13.1"/><path id="cotillon4" class="cls-21" d="M527.87,251.5s-17.62.72-25.31-9.19a59.18,59.18,0,0,1-10.12-21.12"/><path id="cotillon3" class="cls-22" d="M463.87,296.5s12.33,8,12.54,17.51a39.64,39.64,0,0,1-3.81,17.25"/><path id="cotillon2" class="cls-21" d="M175.61,285.91s4-14.13,13-17.12a39.67,39.67,0,0,1,17.62-1.42"/><path id="cotillon1" class="cls-9" d="M535.37,35.72s-10-12.72-23-12.72,10,17-6,36-26,28.87-26,28.87S519.37,84.44,535.37,35.72Z"/><polyline id="zigzag1" class="cls-23" points="599.28 28 610.87 59.5 573.2 59.5 584.87 95.5 551.28 95.5 551.28 119"/></g></g></svg>