<svg xmlns="http://www.w3.org/2000/svg" viewBox="0 0 239.1 243"><defs><style>.cls-1{fill:#ec4c4c;}.cls-2{fill:#ed4c4c;}.cls-3{fill:#d54747;}.cls-4{fill:#f29933;}.cls-5{fill:#ee9031;}.cls-6{fill:#fcab36;}.cls-7{fill:#f8a034;}.cls-8{fill:#ec4d4b;}.cls-9{fill:#fdb638;}.cls-10{fill:#f15755;}.cls-11{fill:#ffc734;}.cls-12{fill:#ffd25d;}.cls-13{fill:#fdb637;}.cls-14{fill:#faa232;}.cls-15{fill:#feb639;}.cls-16,.cls-17{fill:none;stroke-miterlimit:10;stroke-width:0.25px;}.cls-16{stroke:#000;opacity:0.25;}.cls-17{stroke:#fff;opacity:0.35;}.cls-18{fill:#f15855;}</style></defs><g id="Layer_2" data-name="Layer 2"><g id="Layer_3" data-name="Layer 3"><g id="box"><polygon class="cls-1" points="124.05 40.19 124.05 243 13.05 191 11.05 75 118.71 38 124.05 40.19"/><polygon class="cls-2" points="11.05 69.26 11.05 88 123.95 135.85 123.95 117.85 11.05 69.26"/><polygon class="cls-3" points="231.05 84 228.05 187 124.05 243 124.05 40.19 231.05 84"/><path class="cls-4" d="M196,83.41l-30,11s1,67,1,125v.46a45.3,45.3,0,0,0,19-6.46c10-6,10-9.16,10-9.16Z"/><polygon class="cls-5" points="166.31 124.41 196.01 111.41 196.01 96 166.31 107.17 166.31 124.41"/><path class="cls-6" d="M45,83.41l30,11s-1,67-1,125c0,0-10-2-17-5A39.38,39.38,0,0,1,45,206Z"/><polygon class="cls-7" points="74.7 105.09 75.01 115.41 45.01 102.55 45.01 88.41 74.7 105.09"/><polygon class="cls-8" points="239.05 47 128.05 95 0.05 40 117.55 0 239.05 47"/><rect class="cls-9" x="48.01" y="129.41" width="7" height="31" rx="2.94"/><rect class="cls-9" x="48.01" y="165.41" width="7" height="15" rx="2.04"/><polygon class="cls-10" points="128.05 95 128.05 129 0.05 72.3 0.05 40 128.05 95"/><polygon class="cls-3" points="239.05 47 239.05 81 128.05 129 128.05 95 239.05 47"/><path class="cls-6" d="M48,21.41s11-10,25-8c25,10,127,50,127,50l2,35a29.31,29.31,0,0,1-9,6,38.69,38.69,0,0,1-16,3c0-8-1-33-1-33Z"/><path class="cls-11" d="M182,24.41s-11-10-25-8c-25,10-119,41-119,41v32s9,9,32,14v-33Z"/><rect class="cls-12" x="80.36" y="38.11" width="4.98" height="16.73" rx="2.49" transform="translate(97.71 -47.35) rotate(69.7)"/><rect class="cls-12" x="61.36" y="45.12" width="4.98" height="16.73" rx="2.49" transform="translate(91.87 -24.95) rotate(69.7)"/><rect class="cls-13" x="175.87" y="49.55" width="4.98" height="20.55" rx="2.49" transform="translate(55.72 202.49) rotate(-67.86)"/><rect class="cls-14" x="187.87" y="131.55" width="4.98" height="35.85" rx="2.49"/><rect class="cls-14" x="187.87" y="170.41" width="4.98" height="8.15" rx="2.49"/><rect class="cls-15" x="194.36" y="71.12" width="4.98" height="11.29" rx="2.05" transform="translate(-2.81 7.64) rotate(-2.21)"/><line class="cls-16" x1="239.05" y1="47" x2="200.04" y2="63.87"/><polyline class="cls-17" points="175.84 74.33 128.05 95 70.01 70.41"/><rect class="cls-18" x="16.01" y="94.41" width="7" height="44" rx="3.5"/><rect class="cls-18" x="28.17" y="20.62" width="7" height="31.63" rx="3" transform="translate(55.71 -5.43) rotate(70.87)"/><rect class="cls-18" x="16.01" y="143.41" width="7" height="15" rx="2.04"/><line class="cls-16" x1="38.01" y1="57.41" x2="0.05" y2="40"/></g></g></g></svg>