<svg xmlns="http://www.w3.org/2000/svg" viewBox="0 0 239.1 243"><g id="a5c2e602-996d-4ed3-a1f3-392d48b464f8" data-name="Layer 2"><g id="bddabc65-1837-4597-9528-e94f9c1a8254" data-name="Layer 3"><g id="f0761174-31de-4dfe-b064-37d4d982fbd5" data-name="box"><polygon points="124.05 40.19 124.05 243 13.05 191 11.05 75 118.71 38 124.05 40.19" fill="#ec4c4c"/><polygon points="11.05 69.26 11.05 88 123.95 135.85 123.95 117.85 11.05 69.26" fill="#ed4c4c"/><polygon points="231.05 84 228.05 187 124.05 243 124.05 40.19 231.05 84" fill="#d54747"/><path d="M196,83.41l-30,11s1,67,1,125v.46a45.3,45.3,0,0,0,19-6.46c10-6,10-9.16,10-9.16Z" fill="#f29933"/><polygon points="166.31 124.41 196.01 111.41 196.01 96 166.31 107.17 166.31 124.41" fill="#ee9031"/><path d="M45,83.41l30,11s-1,67-1,125c0,0-10-2-17-5A39.38,39.38,0,0,1,45,206Z" fill="#fcab36"/><polygon points="74.7 105.09 75.01 115.41 45.01 102.55 45.01 88.41 74.7 105.09" fill="#f8a034"/><polygon points="239.05 47 128.05 95 0.05 40 117.55 0 239.05 47" fill="#ec4d4b"/><rect x="48.01" y="129.41" width="7" height="31" rx="2.94" fill="#fdb638"/><rect x="48.01" y="165.41" width="7" height="15" rx="2.04" fill="#fdb638"/><polygon points="128.05 95 128.05 129 0.05 72.3 0.05 40 128.05 95" fill="#f15755"/><polygon points="239.05 47 239.05 81 128.05 129 128.05 95 239.05 47" fill="#d54747"/><path d="M48,21.41s11-10,25-8c25,10,127,50,127,50l2,35a29.31,29.31,0,0,1-9,6,38.69,38.69,0,0,1-16,3c0-8-1-33-1-33Z" fill="#fcab36"/><path d="M182,24.41s-11-10-25-8c-25,10-119,41-119,41v32s9,9,32,14v-33Z" fill="#ffc734"/><rect x="80.36" y="38.11" width="4.98" height="16.73" rx="2.49" transform="translate(97.71 -47.35) rotate(69.7)" fill="#ffd25d"/><rect x="61.36" y="45.12" width="4.98" height="16.73" rx="2.49" transform="translate(91.87 -24.95) rotate(69.7)" fill="#ffd25d"/><rect x="175.87" y="49.55" width="4.98" height="20.55" rx="2.49" transform="translate(55.72 202.49) rotate(-67.86)" fill="#fdb637"/><rect x="187.87" y="131.55" width="4.98" height="35.85" rx="2.49" fill="#faa232"/><rect x="187.87" y="170.41" width="4.98" height="8.15" rx="2.49" fill="#faa232"/><rect x="194.36" y="71.12" width="4.98" height="11.29" rx="2.05" transform="translate(-2.81 7.64) rotate(-2.21)" fill="#feb639"/><line x1="239.05" y1="47" x2="200.04" y2="63.87" fill="none" stroke="#000" stroke-miterlimit="10" stroke-width="0.25" opacity="0.25"/><polyline points="175.84 74.33 128.05 95 70.01 70.41" fill="none" stroke="#fff" stroke-miterlimit="10" stroke-width="0.25" opacity="0.35"/><rect x="16.01" y="94.41" width="7" height="44" rx="3.5" fill="#f15855"/><rect x="28.17" y="20.62" width="7" height="31.63" rx="3" transform="translate(55.71 -5.43) rotate(70.87)" fill="#f15855"/><rect x="16.01" y="143.41" width="7" height="15" rx="2.04" fill="#f15855"/><line x1="38.01" y1="57.41" x2="0.05" y2="40" fill="none" stroke="#000" stroke-miterlimit="10" stroke-width="0.25" opacity="0.25"/></g></g></g></svg>