<svg xmlns="http://www.w3.org/2000/svg" viewBox="0 0 669.13 332.3"><g id="Layer_2" data-name="Layer 2"><g id="Layer_3" data-name="Layer 3"><g id="Ellipse16"><path d="M158.37,207a18,18,0,1,1-18,18,18,18,0,0,1,18-18m0-4.5a22.5,22.5,0,1,0,22.5,22.5,22.5,22.5,0,0,0-22.5-22.5Z" fill="#d54747"/></g><circle id="Ellipse15" cx="196.37" cy="178" r="10" fill="#d54747"/><circle id="Ellipse14" cx="544.37" cy="208" r="9" fill="#fdb638"/><circle id="Ellipse13" cx="655.37" cy="234" r="6" fill="#d54747"/><circle id="Ellipse12" cx="632.37" cy="286" r="7" fill="#fdb638"/><g id="Ellipse11"><path d="M625.37,114a5,5,0,1,1-5,5,5,5,0,0,1,5-5m0-3a8,8,0,1,0,8,8,8,8,0,0,0-8-8Z" fill="#fdb638"/></g><circle id="Ellipse10" cx="480.37" cy="193" r="4" fill="#fdb638"/><circle id="Ellipse9" cx="518.37" cy="165" r="6" fill="#d54747"/><circle id="Ellipse8" cx="469.37" cy="53" r="11" fill="#fdb638"/><circle id="Ellipse7" cx="350.37" cy="46" r="6" fill="#d54747"/><circle id="Ellipse6" cx="411.37" cy="3" r="3" fill="#d54747"/><circle id="Ellipse5" cx="230.37" cy="23" r="5" fill="#fdb638"/><circle id="Ellipse4" cx="141.37" cy="99" r="7" fill="#fdb638"/><circle id="Ellipse3" cx="24.37" cy="269" r="10" fill="#fdb638"/><circle id="Ellipse2" cx="68.37" cy="248" r="4" fill="#d54747"/><g id="Ellipse1"><path d="M232.37,310a6,6,0,1,1-6,6,6,6,0,0,1,6-6m0-3a9,9,0,1,0,9,9,9,9,0,0,0-9-9Z" fill="#d54747"/></g><polyline id="zigzag4" points="2.91 197 28.39 159 46.17 199 68.37 178 80.54 197" fill="none" stroke="#fdb638" stroke-miterlimit="10" stroke-width="7"/><polyline id="zigzag3" points="151.06 23 189.37 32 177.72 64 206.37 75.43 196.37 111" fill="none" stroke="#fdb638" stroke-miterlimit="10" stroke-width="7"/><polyline id="zigzag2" points="532.68 279 557.37 264 578.91 286 615.05 252" fill="none" stroke="#fdb638" stroke-miterlimit="10" stroke-width="7"/><path id="cotillon7" d="M633.37,188s6-10.85,16-12.43a57.14,57.14,0,0,1,19,.43" fill="none" stroke="#fdb638" stroke-miterlimit="10" stroke-width="7"/><path id="cotillon6" d="M94.75,113.51s-10.25-7-10.9-17.07A57.14,57.14,0,0,1,86,77.56" fill="none" stroke="#fdb638" stroke-miterlimit="10" stroke-width="7"/><path id="cotillon5" d="M265.68,14.52s3.4,11.93-2.58,20.1a57,57,0,0,1-13.76,13.1" fill="none" stroke="#fdb638" stroke-miterlimit="10" stroke-width="7"/><path id="cotillon4" d="M527.87,251.5s-17.62.72-25.31-9.19a59.18,59.18,0,0,1-10.12-21.12" fill="none" stroke="#fdb638" stroke-miterlimit="10" stroke-width="4"/><path id="cotillon3" d="M463.87,296.5s12.33,8,12.54,17.51a39.64,39.64,0,0,1-3.81,17.25" fill="none" stroke="#d54747" stroke-miterlimit="10" stroke-width="4.5"/><path id="cotillon2" d="M175.61,285.91s4-14.13,13-17.12a39.67,39.67,0,0,1,17.62-1.42" fill="none" stroke="#fdb638" stroke-miterlimit="10" stroke-width="4"/><path id="cotillon1" d="M535.37,35.72s-10-12.72-23-12.72,10,17-6,36-26,28.87-26,28.87S519.37,84.44,535.37,35.72Z" fill="#fdb638"/><polyline id="zigzag1" points="599.28 28 610.87 59.5 573.2 59.5 584.87 95.5 551.28 95.5 551.28 119" fill="none" stroke="#d54747" stroke-miterlimit="10" stroke-width="6"/></g></g></svg>