<svg xmlns="http://www.w3.org/2000/svg" viewBox="0 0 175.35 83"><defs><style>.cls-1{fill:#fbe536;}</style></defs><g id="Layer_2" data-name="Layer 2"><g id="Layer_3" data-name="Layer 3"><g id="ribbons"><path class="cls-1" d="M67.93,17.54C57.09,5.49,44.39,0,37.18,0,20,0,8.12,14,3.15,26-1.58,37.4-.94,48.08,4.83,53.85,28.31,77.34,53.83,82,70.39,82a71.31,71.31,0,0,0,17.93-2l.36-.11V79.5C88.68,47.37,77.39,28.07,67.93,17.54ZM5.53,53.15c-5.39-5.4-6-15.92-1.45-26.81C8.92,14.65,20.5,1,37.18,1,52,1,87.52,23.48,87.68,79.12,83.4,80.22,42,89.63,5.53,53.15Z"/><path class="cls-1" d="M37.18,1C20.5,1,8.92,14.65,4.08,26.34-.43,37.23.14,47.75,5.53,53.15,42,89.63,83.4,80.22,87.68,79.12,87.52,23.48,52,1,37.18,1Zm33,71.08c-15.06,0-37.39-4.39-58.3-25.3-2.3-2.3-2.87-8.87.49-17C16.47,19.94,25.72,10,37.18,10c3.92,0,13.52,3.67,22.58,13.52,7.53,8.18,16.88,23.09,18.63,47.62l0,.49-.48.05A76,76,0,0,1,70.2,72.08Z"/><path class="cls-1" d="M91.59,53.18l0-.73a41.47,41.47,0,0,0-2.65-13C85.72,31.17,80.36,26,76.73,24.69c-8.43-3.07-17,1.8-21.69,6.89s-6.58,11-4.73,15.14c12.2,27.2,36.85,28.79,37.1,28.81h.2l0-.08,0-.11.1-.28A59.13,59.13,0,0,0,91.59,53.18ZM87.27,74.89l0,.08-.37,0c-3.74-.41-25-3.85-36.07-28.44-1.75-3.91.07-9.61,4.64-14.54,3.63-3.9,9.53-7.67,15.86-7.67a15.26,15.26,0,0,1,5.25.92C79.48,26.26,85.07,31,88.4,39.6a41,41,0,0,1,2.65,13.68c0,.26,0,.52,0,.79A59.53,59.53,0,0,1,87.27,74.89Z"/><path class="cls-1" d="M91.05,53.28A41,41,0,0,0,88.4,39.6C85.07,31,79.48,26.26,76.55,25.2a15.26,15.26,0,0,0-5.25-.92C65,24.28,59.07,28.05,55.44,32c-4.57,4.93-6.39,10.63-4.64,14.54,11,24.59,32.33,28,36.07,28.44l.37,0,0-.08a59.53,59.53,0,0,0,3.8-20.82C91.06,53.8,91.06,53.54,91.05,53.28ZM83.58,68.54l-.07.25-.26-.06c-7-1.8-19.8-7.37-27.47-24.47-.46-1-.13-3.28,1.65-6,2.73-4.22,8.38-8.5,13.89-8.5a9.79,9.79,0,0,1,3.37.59C76.91,31.13,90.74,43.1,83.58,68.54Z"/><path class="cls-1" d="M112.8,45.81c-4.83-2.41-9.68-2.54-12.32-.31a38.63,38.63,0,0,0-7.92,9c-.18.28-.35.55-.51.83a31.77,31.77,0,0,0-4.18,21.65c0,.22.08.35.08.36l0,.14h.15l.51,0c.87.05,1.71.06,2.54.06,11.54,0,18.85-3.6,23-6.77,5.22-3.94,7.76-8.74,7.91-11.54C122.47,52.91,117.32,48.05,112.8,45.81ZM114,70.43c-4.43,3.34-12.37,7.18-25.21,6.64l-.48,0s0-.1,0-.16a31.23,31.23,0,0,1,3.8-20.82c.16-.3.33-.6.52-.89a37.84,37.84,0,0,1,8.15-9.38c2.52-2.12,7.19-2,11.89.37,4.4,2.19,9.43,6.91,9.1,13C121.62,61.45,119.46,66.31,114,70.43Z"/><path class="cls-1" d="M112.63,46.17c-4.7-2.35-9.37-2.49-11.89-.37a37.84,37.84,0,0,0-8.15,9.38c-.19.29-.36.59-.52.89a31.23,31.23,0,0,0-3.8,20.82c0,.06,0,.12,0,.16l.48,0c12.84.54,20.78-3.3,25.21-6.64,5.47-4.12,7.63-9,7.74-11.24C122.06,53.08,117,48.36,112.63,46.17Zm-19,25.29h-.22v-.21c.13-5.57,2.13-13.76,11-21.17l.06,0a3.68,3.68,0,0,1,1.09-.14A13.07,13.07,0,0,1,114,54a7,7,0,0,1,2.19,4.94C115.9,60.7,110.7,70.6,93.6,71.46Z"/><path class="cls-1" d="M163,30.79C158.89,20.94,149.65,11,138.18,11c-3.92,0-13.53,3.67-22.59,13.52C108.06,32.7,98.72,47.61,97,72.15l0,.49.48,0a77.2,77.2,0,0,0,7.75.39,78,78,0,0,0,27-4.81,86.28,86.28,0,0,0,31.34-20.49C165.76,45.48,166.33,38.91,163,30.79Zm-.2,16.29c-20.67,20.66-42.73,25-57.6,25-2.37,0-4.78-.11-7.16-.34C101.4,27,130.6,12,138.18,12c11,0,19.91,9.63,23.86,19.17a27.57,27.57,0,0,1,2.27,10.3C164.31,44.09,163.74,46.1,162.76,47.08Zm.2-16.29C158.89,20.94,149.65,11,138.18,11c-3.92,0-13.53,3.67-22.59,13.52C108.06,32.7,98.72,47.61,97,72.15l0,.49.48,0a77.2,77.2,0,0,0,7.75.39,78,78,0,0,0,27-4.81,86.28,86.28,0,0,0,31.34-20.49C165.76,45.48,166.33,38.91,163,30.79Zm-.2,16.29c-20.67,20.66-42.73,25-57.6,25-2.37,0-4.78-.11-7.16-.34C101.4,27,130.6,12,138.18,12c11,0,19.91,9.63,23.86,19.17a27.57,27.57,0,0,1,2.27,10.3C164.31,44.09,163.74,46.1,162.76,47.08ZM172.21,27c-5-12-16.85-26-34-26C131,1,118.27,6.49,107.43,18.54,98,29.07,86.68,48.37,86.68,80.5v.37L87,81A71.31,71.31,0,0,0,105,83c16.56,0,42.08-4.66,65.56-28.15C176.3,49.08,176.94,38.4,172.21,27Zm-2.38,27.19C133.35,90.63,92,81.22,87.68,80.12,87.84,24.48,123.35,2,138.18,2c16.69,0,28.26,13.65,33.1,25.34C175.79,38.23,175.22,48.75,169.83,54.15ZM138.18,11c-3.92,0-13.53,3.67-22.59,13.52C108.06,32.7,98.72,47.61,97,72.15l0,.49.48,0a77.2,77.2,0,0,0,7.75.39,78,78,0,0,0,27-4.81,86.28,86.28,0,0,0,31.34-20.49c2.3-2.3,2.87-8.87-.5-17C158.89,20.94,149.65,11,138.18,11Zm24.58,36.08c-20.67,20.66-42.73,25-57.6,25-2.37,0-4.78-.11-7.16-.34C101.4,27,130.6,12,138.18,12c11,0,19.91,9.63,23.86,19.17a27.57,27.57,0,0,1,2.27,10.3C164.31,44.09,163.74,46.1,162.76,47.08Z"/><path class="cls-1" d="M171.28,27.34C166.44,15.65,154.87,2,138.18,2c-14.83,0-50.34,22.48-50.5,78.12,4.28,1.1,45.67,10.51,82.15-26C175.22,48.75,175.79,38.23,171.28,27.34Zm-7.82,20.44a86.28,86.28,0,0,1-31.34,20.49,78,78,0,0,1-26.95,4.81,77.2,77.2,0,0,1-7.75-.39l-.48,0,0-.49c1.75-24.54,11.09-39.45,18.62-47.63C124.65,14.67,134.26,11,138.18,11c11.47,0,20.71,9.94,24.78,19.79C166.33,38.91,165.76,45.48,163.46,47.78Z"/><path class="cls-1" d="M163,30.79C158.89,20.94,149.65,11,138.18,11c-3.92,0-13.53,3.67-22.59,13.52C108.06,32.7,98.72,47.61,97,72.15l0,.49.48,0a77.2,77.2,0,0,0,7.75.39,78,78,0,0,0,27-4.81,86.28,86.28,0,0,0,31.34-20.49C165.76,45.48,166.33,38.91,163,30.79Zm-.2,16.29c-20.67,20.66-42.73,25-57.6,25-2.37,0-4.78-.11-7.16-.34C101.4,27,130.6,12,138.18,12c11,0,19.91,9.63,23.86,19.17a27.57,27.57,0,0,1,2.27,10.3C164.31,44.09,163.74,46.1,162.76,47.08Z"/></g></g></g></svg>