<svg xmlns="http://www.w3.org/2000/svg" viewBox="0 0 239.1 285.58"><g id="Layer_2" data-name="Layer 2"><g id="the-box"><g id="box"><polygon points="124.05 82.78 124.05 285.58 13.05 233.59 11.05 117.58 118.71 80.58 124.05 82.78" fill="#ec4c4c"/><polygon points="11.05 111.85 11.05 130.59 123.95 178.44 123.95 160.44 11.05 111.85" fill="#ed4c4c"/><polygon points="231.05 126.58 228.05 229.59 124.05 285.58 124.05 82.78 231.05 126.58" fill="#d54747"/><path d="M196,126l-30,11s1,67,1,125v.46A45.3,45.3,0,0,0,186,256c10-6,10-9.16,10-9.16Z" fill="#f29933"/><polygon points="166.31 167 196.01 154 196.01 138.59 166.31 149.76 166.31 167" fill="#ee9031"/><path d="M45,126l30,11s-1,67-1,125c0,0-10-2-17-5a39.38,39.38,0,0,1-12-8.44Z" fill="#fcab36"/><polygon points="74.7 147.68 75.01 158 45.01 145.14 45.01 131 74.7 147.68" fill="#f8a034"/><polygon points="239.05 89.59 128.05 137.59 0.05 82.59 117.55 42.59 239.05 89.59" fill="#ec4d4b"/><rect x="48.01" y="172" width="7" height="31" rx="2.94" fill="#fdb638"/><rect x="48.01" y="208" width="7" height="15" rx="2.04" fill="#fdb638"/><polygon points="128.05 137.59 128.05 171.59 0.05 114.89 0.05 82.58 128.05 137.59" fill="#f15755"/><polygon points="239.05 89.58 239.05 123.58 128.05 171.59 128.05 137.59 239.05 89.58" fill="#d54747"/><path d="M48,64s11-10,25-8c25,10,127,50,127,50l2,35a29.31,29.31,0,0,1-9,6,38.69,38.69,0,0,1-16,3c0-8-1-33-1-33Z" fill="#fcab36"/><path d="M182,67s-11-10-25-8C132,69,38,100,38,100v32s9,9,32,14V113Z" fill="#ffc734"/><rect x="80.36" y="80.7" width="4.98" height="16.73" rx="2.49" transform="translate(137.65 -19.53) rotate(69.7)" fill="#ffd25d"/><rect x="61.36" y="87.71" width="4.98" height="16.73" rx="2.49" transform="translate(131.81 2.86) rotate(69.7)" fill="#ffd25d"/><rect x="175.87" y="92.14" width="4.98" height="20.55" rx="2.49" transform="translate(16.27 229.02) rotate(-67.86)" fill="#fdb637"/><rect x="187.87" y="174.14" width="4.98" height="35.85" rx="2.49" fill="#faa232"/><rect x="187.87" y="213" width="4.98" height="8.15" rx="2.49" fill="#faa232"/><rect x="194.36" y="113.71" width="4.98" height="11.29" rx="2.05" transform="translate(-4.45 7.67) rotate(-2.21)" fill="#feb639"/><line x1="239.05" y1="89.58" x2="200.04" y2="106.46" fill="none" stroke="#000" stroke-miterlimit="10" stroke-width="0.25" opacity="0.25"/><polyline points="175.84 116.92 128.05 137.59 70.01 113" fill="none" stroke="#fff" stroke-miterlimit="10" stroke-width="0.25" opacity="0.35"/><rect x="16.01" y="137" width="7" height="44" rx="3.5" fill="#f15855"/><rect x="28.17" y="63.21" width="7" height="31.63" rx="3" transform="translate(95.95 23.2) rotate(70.87)" fill="#f15855"/><rect x="16.01" y="186" width="7" height="15" rx="2.04" fill="#f15855"/><line x1="38.01" y1="100" x2="0.05" y2="82.58" fill="none" stroke="#000" stroke-miterlimit="10" stroke-width="0.25" opacity="0.25"/></g><path id="ribbon-left" d="M100.26,17.54C89.42,5.49,76.72,0,69.51,0c-17.18,0-29.06,14-34,26-4.73,11.44-4.09,22.12,1.68,27.89C60.64,77.34,86.16,82,102.72,82a71.31,71.31,0,0,0,17.93-2l.36-.11V79.5C121,47.37,109.72,28.07,100.26,17.54Zm10,54.14a76,76,0,0,1-7.74.4c-15.06,0-37.39-4.39-58.3-25.3-2.3-2.3-2.87-8.87.49-17C48.8,19.94,58.05,10,69.51,10,73.43,10,83,13.67,92.09,23.52,99.62,31.7,109,46.61,110.72,71.14l0,.49Z" fill="#fbe536"/><g id="small-ribbons"><path d="M123.92,53.18l0-.73a41.47,41.47,0,0,0-2.65-13c-3.19-8.24-8.55-13.41-12.18-14.72-8.43-3.07-17,1.8-21.69,6.89s-6.58,11-4.73,15.14c12.2,27.2,36.85,28.79,37.1,28.81h.2l0-.08,0-.11.1-.28A59.13,59.13,0,0,0,123.92,53.18Zm-8,15.36-.07.25-.26-.06c-7-1.8-19.8-7.37-27.47-24.47-.46-1-.13-3.28,1.65-6,2.73-4.22,8.38-8.5,13.89-8.5a9.79,9.79,0,0,1,3.37.59C109.24,31.13,123.07,43.1,115.91,68.54Z" fill="#fbe536"/><path d="M145.13,45.81c-4.83-2.41-9.68-2.54-12.32-.31a38.63,38.63,0,0,0-7.92,9c-.18.28-.35.55-.51.83a31.77,31.77,0,0,0-4.18,21.65c0,.22.08.35.08.36l0,.14h.15l.51,0c.87.05,1.71.06,2.54.06,11.54,0,18.85-3.6,23-6.77,5.22-3.94,7.76-8.74,7.91-11.54C154.8,52.91,149.65,48.05,145.13,45.81Zm-19.2,25.65h-.22v-.21c.13-5.57,2.13-13.76,10.95-21.17l.06,0a3.68,3.68,0,0,1,1.09-.14A13.07,13.07,0,0,1,146.28,54a7,7,0,0,1,2.19,4.94C148.23,60.7,143,70.6,125.93,71.46Z" fill="#fbe536"/></g><path id="ribbon-right" d="M204.54,27c-5-12-16.85-26-34-26-7.21,0-19.91,5.49-30.75,17.54C130.3,29.07,119,48.37,119,80.5v.37l.36.11a71.31,71.31,0,0,0,17.93,2c16.56,0,42.08-4.66,65.56-28.15C208.63,49.08,209.27,38.4,204.54,27Zm-9.45,20.12c-20.67,20.66-42.73,25-57.6,25-2.37,0-4.78-.11-7.16-.34C133.73,27,162.93,12,170.51,12c11,0,19.91,9.63,23.86,19.17a27.57,27.57,0,0,1,2.27,10.3C196.64,44.09,196.07,46.1,195.09,47.08Z" fill="#fbe536"/></g></g></svg>